<?xml version="1.0" standalone="no"?>
<!DOCTYPE svg PUBLIC "-//W3C//DTD SVG 20010904//EN"
 "http://www.w3.org/TR/2001/REC-SVG-20010904/DTD/svg10.dtd">
<svg version="1.0" xmlns="http://www.w3.org/2000/svg"
 width="260.000000pt" height="260.000000pt" viewBox="0 0 260.000000 260.000000"
 preserveAspectRatio="xMidYMid meet">
<metadata>
Created by potrace 1.11, written by Peter Selinger 2001-2013
</metadata>
<g transform="translate(0.000000,260.000000) scale(0.100000,-0.100000)"
fill="#000000" stroke="none">
<path d="M0 1300 l0 -1300 1300 0 1300 0 0 1300 0 1300 -1300 0 -1300 0 0
-1300z m870 475 c0 -73 1 -75 28 -81 113 -27 193 -126 208 -257 l7 -57 -65 0
-65 0 -5 43 c-11 97 -64 157 -148 165 -61 6 -109 -10 -146 -49 -27 -28 -29
-36 -29 -104 0 -64 3 -77 25 -100 27 -29 111 -75 175 -95 197 -63 289 -190
255 -353 -21 -102 -95 -172 -208 -198 l-52 -12 0 -64 0 -63 -50 0 -50 0 0 65
c0 50 -3 65 -15 65 -31 0 -128 44 -161 73 -45 39 -81 110 -90 176 l-7 51 67 0
c66 0 66 0 66 -28 0 -47 41 -115 85 -140 54 -31 178 -29 222 4 97 72 97 184 1
258 -19 14 -77 41 -128 60 -118 44 -176 80 -217 134 -41 54 -57 111 -50 187 8
112 78 200 182 230 l55 16 0 75 0 74 55 0 55 0 0 -75z"/>
</g>
</svg>
